<?xml version="1.0" encoding="UTF-8" standalone="no"?>
<svg
   width="502.77634"
   height="161.56842"
   xml:space="preserve"
   overflow="hidden"
   version="1.1"
   id="svg3"
   xmlns="http://www.w3.org/2000/svg"
   xmlns:svg="http://www.w3.org/2000/svg"><defs
     id="defs1"><clipPath
       id="clip0"><rect
         x="106"
         y="98"
         width="391"
         height="56"
         id="rect1" /></clipPath></defs><rect
     style="fill:#ffffff;fill-opacity:1;stroke:#ffffff;stroke-miterlimit:3.2"
     id="rect2"
     width="501.77634"
     height="160.56842"
     x="0.5"
     y="0.5" /><g
     clip-path="url(#clip0)"
     transform="translate(-55.322369,-44.311694)"
     id="g6"><g
       id="g8"><text
         font-family="Bahnschrift, Bahnschrift_MSFontService, sans-serif"
         font-weight="400"
         font-size="53px"
         transform="matrix(1.46442,0,0,1.47368,99.1347,154)"
         id="text3">DelaDect</text><path
         d="m 436.434,168.783 h 61.165 v 56.262 h -61.165 z"
         id="path4"
         transform="matrix(1,0,0,1.00633,-0.747232,-71.8516)" /><path
         d="m 484.41111,179.03287 c -1.464,-0.955 -3.46908,-0.49311 -6.97608,0.70689 -3.507,1.2 -8.69533,3.93041 -10.47133,5.56541 -1.78,1.634 -2.7807,3.07183 -3.9027,5.51183 -1.126,2.44 -2.466,4.559 -4.357,7.784 -1.892,3.226 -4.335,7.557 -3.441,8.457 0.89,0.899 1.14784,2.79194 7.70236,-1.97823 3.05829,-2.48042 4.19561,-3.27165 8.52006,-5.47227 2.20398,9.58948 8.84288,13.99766 9.75454,9.9935 -0.86147,-19.43288 3.93688,-26.32621 3.26259,-29.27193 -2.91424,-5.4183 1.36856,-0.3412 -0.0914,-1.2962 z"
         fill="#f25858"
         transform="matrix(1,0,0,1.00633,-2.22068,-69.0182)"
         id="path5"
         style="fill:#e82b2c;fill-opacity:1" /><path
         d="m 446.677,217.053 43.094,-42.741"
         stroke="#ffffff"
         stroke-width="2.89307"
         transform="matrix(1,0,0,1.00633,-0.747232,-71.8516)"
         id="path6" /><path
         d="M 479.54335,217.55162 470.45261,174.312"
         stroke="#ffffff"
         stroke-width="2.89307"
         transform="matrix(1,0,0,1.00633,-0.747232,-71.8516)"
         id="path7" /></g></g></svg>
