<svg width="391" height="56" xmlns="http://www.w3.org/2000/svg" xmlns:xlink="http://www.w3.org/1999/xlink" xml:space="preserve" overflow="hidden"><defs><clipPath id="clip0"><rect x="106" y="98" width="391" height="56"/></clipPath></defs><g clip-path="url(#clip0)" transform="translate(-106 -98)"><text font-family="Bahnschrift,Bahnschrift_MSFontService,sans-serif" font-weight="400" font-size="53" transform="matrix(1.46442 0 0 1.47368 99.1347 154)">DelaDect</text><path d="M436.434 168.783 497.599 168.783 497.599 225.045 436.434 225.045Z" transform="matrix(1 0 0 1.00633 -0.747232 -71.8516)"/><path d="M484.145 178.504C482.681 177.549 478.314 179.44 474.807 180.64 471.3 181.84 468.651 182.348 466.875 183.983 465.095 185.617 464.183 188.377 463.061 190.817 461.935 193.257 460.595 195.376 458.704 198.601 456.812 201.827 454.369 206.158 455.263 207.058 456.153 207.957 460.382 205.425 463.528 203.332 466.675 201.237 468.745 199.582 471.108 198.278 473.472 196.973 476.133 196.021 478.118 194.209 480.104 192.398 481.412 189.729 482.792 186.494 484.167 183.259 485.605 179.459 484.145 178.504Z" fill="#F25858" transform="matrix(1 0 0 1.00633 -2.22068 -69.0182)"/><path d="M446.677 217.053 489.771 174.312" stroke="#FFFFFF" stroke-width="2.89307" transform="matrix(1 0 0 1.00633 -0.747232 -71.8516)"/></g></svg>