<?xml version="1.0" encoding="UTF-8" standalone="no"?>
<svg
   width="391"
   height="55.999992"
   xml:space="preserve"
   overflow="hidden"
   version="1.1"
   id="svg3"
   sodipodi:docname="deladect.svg"
   inkscape:version="1.4.2 (f4327f4, 2025-05-13)"
   xmlns:inkscape="http://www.inkscape.org/namespaces/inkscape"
   xmlns:sodipodi="http://sodipodi.sourceforge.net/DTD/sodipodi-0.dtd"
   xmlns="http://www.w3.org/2000/svg"
   xmlns:svg="http://www.w3.org/2000/svg"><sodipodi:namedview
     id="namedview3"
     pagecolor="#ffffff"
     bordercolor="#000000"
     borderopacity="0.25"
     inkscape:showpageshadow="2"
     inkscape:pageopacity="0.0"
     inkscape:pagecheckerboard="0"
     inkscape:deskcolor="#d1d1d1"
     inkscape:zoom="0.35230179"
     inkscape:cx="-205.78947"
     inkscape:cy="478.28312"
     inkscape:window-width="1920"
     inkscape:window-height="1129"
     inkscape:window-x="-8"
     inkscape:window-y="479"
     inkscape:window-maximized="1"
     inkscape:current-layer="svg3"><inkscape:page
       x="0"
       y="0"
       width="391"
       height="55.999992"
       id="page1"
       margin="0"
       bleed="0" /></sodipodi:namedview><defs
     id="defs1"><clipPath
       id="clip0"><rect
         x="106"
         y="98"
         width="391"
         height="56"
         id="rect1" /></clipPath></defs><g
     clip-path="url(#clip0)"
     transform="translate(-105.99997,-97.999998)"
     id="g15"
     inkscape:export-filename="deladect_white.png"
     inkscape:export-xdpi="300"
     inkscape:export-ydpi="300"><g
       id="g14"><text
         font-family="Bahnschrift, Bahnschrift_MSFontService, sans-serif"
         font-weight="400"
         font-size="53px"
         transform="matrix(1.46442,0,0,1.47368,99.1347,154)"
         id="text11"
         style="fill:#ffffff;fill-opacity:1">DelaDect</text><path
         d="m 436.434,168.783 h 61.165 v 56.262 h -61.165 z"
         id="path11"
         style="stroke:#000000;stroke-opacity:1"
         transform="matrix(1,0,0,1.00633,-0.747232,-71.8516)" /><path
         d="m 484.41111,179.03287 c -1.464,-0.955 -3.46908,-0.49311 -6.97608,0.70689 -3.507,1.2 -8.69533,3.93041 -10.47133,5.56541 -1.78,1.634 -2.7807,3.07183 -3.9027,5.51183 -1.126,2.44 -2.466,4.559 -4.357,7.784 -1.892,3.226 -4.335,7.557 -3.441,8.457 0.89,0.899 1.14784,2.79194 7.70236,-1.97823 3.05829,-2.48042 4.19561,-3.27165 8.52006,-5.47227 2.20398,9.58948 8.84288,13.99766 9.75454,9.9935 -0.86147,-19.43288 3.93688,-26.32621 3.26259,-29.27193 -2.91424,-5.4183 1.36856,-0.3412 -0.0914,-1.2962 z"
         fill="#f25858"
         id="path12"
         sodipodi:nodetypes="cscccccccccc"
         style="fill:#e82b2c;fill-opacity:1"
         transform="matrix(1,0,0,1.00633,-2.22068,-69.0182)" /><path
         d="m 446.677,217.053 43.094,-42.741"
         stroke="#ffffff"
         stroke-width="2.89307"
         id="path13"
         transform="matrix(1,0,0,1.00633,-0.747232,-71.8516)" /><path
         d="M 479.54335,217.55162 470.45261,174.312"
         stroke="#ffffff"
         stroke-width="2.89307"
         id="path14"
         sodipodi:nodetypes="cc"
         transform="matrix(1,0,0,1.00633,-0.747232,-71.8516)" /></g></g></svg>
